<svg width="265" height="265" viewBox="0 0 265 265" fill="none" xmlns="http://www.w3.org/2000/svg">
<path d="M265 132.5C265 205.667 205.667 265 132.5 265C59.3327 265 0 205.667 0 132.5C0 59.3327 59.3327 0 132.5 0C205.667 0 265 59.3327 265 132.5Z" fill="#00CDBE"/>
<path fill-rule="evenodd" clip-rule="evenodd" d="M221.404 169.947C228.126 183.197 228.906 202.358 217.279 214.406C213.09 218.758 206.725 222.46 198.931 225.448C194.352 234.086 166.39 240.711 132.551 240.711C98.7113 240.711 70.7499 234.086 66.1709 225.448C58.3443 222.428 52.0116 218.758 47.7898 214.374C36.1636 202.293 36.943 183.132 43.6654 169.915C58.8315 140.005 98.7438 144.941 103.907 137.277C107.902 131.334 105.531 112.985 105.791 108.276C124.464 110.063 140.41 109.673 159.083 107.887C159.343 112.596 157.135 131.334 161.162 137.277C166.293 144.974 206.238 140.037 221.404 169.947Z" fill="#D09F6C"/>
<path fill-rule="evenodd" clip-rule="evenodd" d="M221.404 169.94C228.126 183.19 228.906 202.351 217.279 214.399C213.09 218.751 206.725 222.453 198.931 225.441C194.352 234.079 166.39 240.704 132.551 240.704C98.7113 240.704 70.7499 234.079 66.1709 225.441C58.3443 222.42 52.0116 218.751 47.7898 214.367C36.1636 202.286 36.943 183.125 43.6654 169.908C55.1942 147.175 81.0447 144.577 95.0091 141.264C98.6464 153.28 113.488 162.276 131.252 162.276C149.308 162.276 164.344 152.988 167.657 140.68C180.907 144.349 209.161 145.843 221.404 169.94Z" fill="#EDEDED"/>
<path fill-rule="evenodd" clip-rule="evenodd" d="M143.371 240.281C139.864 240.573 136.227 240.703 132.525 240.703C128.79 240.703 125.185 240.541 121.678 240.281L124.99 177.993L115.312 162.307L123.172 157.274C125.835 158.086 128.627 158.54 131.55 158.54C134.928 158.54 138.175 157.956 141.195 156.852L149.737 162.307L140.026 177.993L143.371 240.281Z" fill="#FF736E"/>
<path fill-rule="evenodd" clip-rule="evenodd" d="M147.474 133.171C152.833 129.632 156.827 124.273 159.75 117.843C161.861 113.199 163.387 108.003 164.491 102.515C165.173 102.352 165.855 101.963 166.537 101.443C168.193 100.209 169.298 98.5851 170.239 96.669C172.773 91.473 173.909 84.1335 171.311 80.7561C170.174 79.2947 168.551 78.8725 166.894 79.1323C166.927 77.4436 166.959 75.7548 166.959 74.0986C166.959 64.3884 166.927 52.4699 163.777 45.6825C161.471 40.7138 157.996 37.4662 153.872 35.0306C138.056 25.8075 126.917 25.8075 111.102 35.0306C106.977 37.4337 103.502 40.6813 101.197 45.6825C98.0464 52.4699 98.014 64.3884 98.014 74.0986C98.014 75.7548 98.0464 77.4436 98.0789 79.1323C96.4226 78.8725 94.7989 79.2947 93.6622 80.7561C91.0642 84.1335 92.2008 91.4405 94.7339 96.669C95.6757 98.5851 96.7799 100.209 98.4361 101.443C99.1181 101.93 99.8326 102.352 100.482 102.515C101.586 108.003 103.145 113.199 105.256 117.843C108.179 124.273 112.141 129.632 117.532 133.171C125.943 138.725 139.03 138.725 147.474 133.171Z" fill="#E7B780"/>
<path fill-rule="evenodd" clip-rule="evenodd" d="M162.815 135.039L132.516 158.714L152.358 181.057L174.961 139.781L162.815 135.039Z" fill="#FDFDFD"/>
<path fill-rule="evenodd" clip-rule="evenodd" d="M102.216 135.039L132.483 158.714L112.673 181.057L90.0703 139.781L102.216 135.039Z" fill="#FDFDFD"/>
<path fill-rule="evenodd" clip-rule="evenodd" d="M199.533 225.183L198.883 225.443C198.039 227.034 196.415 228.561 194.109 229.957L194.694 218.981C195.96 194.689 195.376 195.273 198.688 219.013L199.533 225.183Z" fill="#B2B2B2"/>
<path fill-rule="evenodd" clip-rule="evenodd" d="M70.909 229.957C68.6032 228.528 66.9794 227.034 66.1351 225.443L65.4531 225.183L66.3299 219.013C69.6424 195.273 69.0579 194.689 70.3244 218.981L70.909 229.957Z" fill="#B2B2B2"/>
<path fill-rule="evenodd" clip-rule="evenodd" d="M126.72 27.5386C120.744 27.9283 114.964 29.065 110.904 31.7279C107.202 34.1636 104.052 37.2812 101.454 41.0484C98.9857 44.6532 97.6867 47.8358 96.8423 51.1483C95.316 57.2537 94.4067 64.4307 94.9913 70.731C95.1536 72.4847 95.2835 74.9203 95.5433 76.5766C95.9006 78.8174 97.1671 80.8958 97.4269 82.9418C97.6218 84.5331 97.7841 86.1569 97.8166 88.0729C97.8491 89.5018 97.8816 91.0282 98.0115 92.3597C98.1738 93.9834 98.4337 96.3866 99.5054 97.3934C100.577 98.4001 102.493 97.913 103.11 94.568C103.337 93.3664 103.467 91.7751 103.467 89.8266C103.467 86.3842 103.467 82.9742 103.467 79.5318C103.5 75.6673 102.883 76.8689 103.467 69.9516C103.76 66.769 104.442 63.1642 105.351 59.8842C106.163 56.9289 107.202 54.7206 108.404 53.1293C111.976 48.3879 118.016 48.6152 122.758 50.9534C130 54.4933 135.001 54.4933 142.276 50.9534C147.017 48.6152 153.057 48.3879 156.63 53.1293C157.831 54.7531 158.838 56.9614 159.682 59.8842C160.592 63.1642 161.274 66.769 161.566 69.9516C162.183 76.8689 161.534 75.6673 161.566 79.5318C161.566 82.9418 161.566 86.3842 161.566 89.8266C161.566 91.8076 161.696 93.3664 161.923 94.568C162.54 97.9455 164.456 98.4001 165.528 97.3934C166.632 96.3866 166.859 93.9834 167.022 92.3597C167.152 91.0607 167.184 89.5343 167.217 88.0729C167.282 86.1569 167.412 84.5006 167.606 82.9418C167.866 80.9283 169.133 78.8174 169.49 76.5766C169.75 74.9203 169.88 72.4847 170.042 70.731C170.627 64.4307 169.717 57.2537 168.191 51.1483C167.347 47.8358 166.048 44.6532 163.579 41.0484C161.014 37.2812 157.864 34.1636 154.129 31.7279C150.07 29.065 144.322 27.9283 138.314 27.5386C134.449 27.2788 130.617 27.2788 126.72 27.5386Z" fill="#A38155"/>
<path fill-rule="evenodd" clip-rule="evenodd" d="M149.228 91.2628C158.536 91.0057 159.495 86.6063 159.687 81.8288C159.54 77.4747 156.663 74.7684 148.8 75.0859C139.934 75.2825 134.992 77.5805 137.234 83.7035C138.783 89.4334 142.722 92.0187 149.228 91.2628ZM116.227 91.9582C103.997 92.0489 105.221 87.2412 105 81.5718C105.177 76.4012 106.298 73.3927 117.067 74.1183C124.458 74.2847 129.15 75.3127 130.345 78.4422C132.056 79.4703 133.826 79.5005 135.7 78.3515C136.954 75.2825 141.601 74.2847 148.933 74.1032C159.702 73.3927 160.808 76.4012 161 81.5567C160.779 87.2261 162.018 92.0338 149.773 91.9431C140.76 92.3059 137.883 90.3708 136.054 83.5977C135.582 82.3126 134.933 81.602 132.911 81.5869C130.935 81.5718 130.389 82.3579 129.932 83.5977C128.117 90.3859 125.225 92.3211 116.227 91.9582ZM116.758 91.2628C107.449 91.0057 106.49 86.6063 106.298 81.8288C106.446 77.4747 109.322 74.7684 117.185 75.0859C126.052 75.2825 130.994 77.5805 128.751 83.7035C127.202 89.4334 123.263 92.0187 116.758 91.2628Z" fill="#5E5970"/>
</svg>
