<svg width="265" height="265" viewBox="0 0 265 265" fill="none" xmlns="http://www.w3.org/2000/svg">
<path d="M265 132.5C265 205.667 205.667 265 132.5 265C59.3327 265 0 205.667 0 132.5C0 59.3328 59.3327 0 132.5 0C205.667 0 265 59.3328 265 132.5Z" fill="#00CDBE"/>
<path fill-rule="evenodd" clip-rule="evenodd" d="M102.966 51.0721C100.075 53.9949 94.5868 70.6548 94.8142 81.2094C95.1714 98.1291 98.3865 130.799 85.0391 127.519C100.66 148.986 174.347 143.692 184.089 127.682C167.235 130.312 169.865 106.605 171.456 89.7828C172.496 78.6762 169.151 60.3926 166.13 50.6824C162.558 39.251 124.367 29.3785 102.966 51.0721Z" fill="#794B3A"/>
<path fill-rule="evenodd" clip-rule="evenodd" d="M114.177 115.961L124.829 116.643C133.565 116.643 142.009 116.513 150.81 115.961L152.628 129.796C153.57 136.973 155.714 141.876 163.248 142.883C182.278 145.384 194.067 148.534 202.413 160.875C208.843 170.325 214.202 184.744 212.643 196.208C210.467 211.991 200.562 218.259 186.728 223.033C185.688 223.39 184.584 223.747 183.48 224.104C169.288 238.751 95.6988 238.751 81.507 224.104C80.4029 223.747 79.3312 223.422 78.2595 223.033C64.4249 218.226 54.5199 211.991 52.344 196.208C50.7527 184.744 56.1437 170.325 62.5738 160.875C70.9525 148.534 82.7411 145.384 101.739 142.883C109.274 141.876 111.417 136.973 112.359 129.796L114.177 115.961Z" fill="#EBC399"/>
<path d="M74.1261 150.16C69.612 152.693 65.8123 156.071 62.5648 160.877C56.1346 170.327 50.7762 184.747 52.335 196.21C54.5108 211.994 64.4159 218.261 78.2505 223.035C79.2897 223.392 80.3938 223.75 81.498 224.107C95.6898 238.753 169.279 238.753 183.471 224.107C184.575 223.75 185.647 223.425 186.719 223.035C200.553 218.229 210.458 211.994 212.634 196.21C214.225 184.747 208.834 170.327 202.404 160.877C199.157 156.071 195.357 152.693 190.843 150.16C174.313 156.688 154.178 160.552 132.485 160.552C110.791 160.552 90.6886 156.688 74.1261 150.16Z" fill="#FF736E"/>
<path fill-rule="evenodd" clip-rule="evenodd" d="M166.041 143.284C183.415 145.752 194.489 149.194 202.413 160.885C208.843 170.336 214.202 184.755 212.643 196.219C210.467 212.002 200.562 218.27 186.728 223.043C185.688 223.401 184.584 223.758 183.48 224.115C169.288 238.762 95.6988 238.762 81.507 224.115C80.4029 223.758 79.3312 223.433 78.2595 223.043C64.4249 218.237 54.5199 212.002 52.344 196.219C50.7527 184.755 56.1437 170.336 62.5738 160.885C70.5953 149.064 81.7668 145.687 99.4335 143.219L119.926 212.132L132.461 234.962L144.509 212.521L166.041 143.284Z" fill="#E8F0F5"/>
<path fill-rule="evenodd" clip-rule="evenodd" d="M75.875 222.162C77.6612 222.942 79.5123 223.656 81.4608 224.306L80.6489 205.145C79.7396 183.646 80.1618 184.133 77.791 205.177L75.875 222.162Z" fill="#C6D5DD"/>
<path fill-rule="evenodd" clip-rule="evenodd" d="M189.112 222.162C187.391 222.942 185.54 223.656 183.656 224.306L184.436 205.145C185.313 183.646 184.923 184.133 187.229 205.177L189.112 222.162Z" fill="#C6D5DD"/>
<path fill-rule="evenodd" clip-rule="evenodd" d="M104.287 103.816C107.664 113.006 112.763 119.988 119.16 125.379C130.917 135.382 134.749 135.317 146.472 125.282C152.935 119.761 158.099 112.616 161.444 103.199C162.223 104.303 163.619 103.783 164.821 102.874C166.217 101.835 167.159 100.471 167.939 98.8469C170.082 94.4627 171.056 88.2924 168.848 85.467C168.101 84.5252 167.094 84.103 166.023 84.0381C166.899 80.4982 167.939 76.9584 168.945 72.8665C174.174 52.0172 156.28 34.1882 132.475 31.168C109.872 33.4088 92.1084 52.1146 96.525 72.8665C97.4019 77.0233 98.4735 80.5631 99.4153 84.103C98.506 84.2654 97.6941 84.6875 97.0446 85.4345C94.5765 88.2923 95.6482 94.4627 98.0514 98.8144C98.9607 100.438 99.9999 101.802 101.559 102.841C102.468 103.458 103.442 103.881 104.287 103.816Z" fill="#F9D09E"/>
<path fill-rule="evenodd" clip-rule="evenodd" d="M160.521 92.3523C160.748 91.1507 160.911 90.1764 161.008 89.3645C161.106 88.5527 161.138 87.8707 161.138 87.3186C161.106 86.8639 161.041 86.4742 160.911 86.1495C160.554 85.1103 159.644 84.5582 158.637 84.2334C157.826 83.9411 156.786 83.7788 155.552 83.6813C154.188 83.5839 152.629 83.5514 150.876 83.5839C149.122 83.6164 147.109 83.7138 144.9 83.8112C143.764 83.8762 142.789 83.9411 141.945 84.071C141.101 84.2009 140.386 84.3308 139.802 84.5257C138.73 84.8829 137.853 85.3701 137.658 86.5717C137.626 86.9289 137.626 87.3511 137.658 87.8382C137.723 88.3903 137.821 89.0073 137.983 89.6893C138.145 90.3713 138.34 91.1507 138.6 91.9626C138.827 92.7095 139.087 93.3266 139.412 93.8786C139.737 94.3982 140.094 94.8529 140.516 95.2426C140.906 95.6323 141.361 95.9246 141.848 96.1844C142.335 96.4442 142.887 96.6391 143.471 96.8014H143.504H143.569H143.601L143.666 96.8339C146.069 97.4509 149.057 97.2886 151.98 97.1587H152.077L152.5 97.1262C153.149 97.0937 153.766 97.0612 154.48 97.0288H154.513C155.39 96.9963 156.169 96.8989 156.851 96.704C157.533 96.5092 158.118 96.2493 158.637 95.8596C159.125 95.5024 159.514 95.0478 159.839 94.4957C160.164 93.9436 160.424 93.2291 160.586 92.4172L160.521 92.3523ZM130.968 85.5324C131.65 85.7598 132.3 85.8897 132.949 85.8897C133.599 85.8897 134.248 85.7598 134.93 85.5324C134.963 85.3376 135.028 85.1427 135.093 84.9804C135.45 84.0061 136.034 83.2592 136.879 82.6746C137.463 82.2849 138.145 81.9277 138.957 81.6679C139.672 81.4405 140.516 81.2457 141.523 81.1158C142.465 80.9859 143.569 80.8884 144.835 80.8235C147.076 80.7261 149.09 80.6286 150.941 80.5962C152.792 80.5637 154.416 80.5637 155.845 80.6936C157.403 80.8235 158.735 81.0833 159.872 81.5055C161.041 81.9277 161.982 82.5447 162.697 83.3891C163.152 83.9087 163.476 84.4607 163.704 85.0778C163.931 85.6948 164.061 86.3768 164.093 87.1887C164.126 87.9032 164.093 88.715 163.963 89.6568C163.834 90.5986 163.671 91.6703 163.411 92.9693C163.184 94.1709 162.794 95.1777 162.275 96.0545C161.755 96.9313 161.073 97.6783 160.294 98.2304C159.547 98.7824 158.67 99.2046 157.696 99.4644C156.754 99.7242 155.715 99.8866 154.578 99.9191H154.545H154.416C153.799 99.9516 153.117 99.984 152.435 100.017H152.175C150.584 100.081 148.992 100.179 147.433 100.146C145.842 100.114 144.316 99.984 142.919 99.5943H142.854L142.789 99.5619H142.757C141.977 99.3345 141.231 99.0747 140.549 98.7175C139.834 98.3603 139.185 97.9056 138.568 97.3535C137.983 96.8014 137.463 96.1519 136.976 95.3725C136.522 94.6256 136.132 93.7487 135.84 92.742C135.677 92.1899 135.547 91.6703 135.385 91.1507C135.255 90.7285 135.158 90.3063 135.093 89.9166C134.346 89.397 133.631 89.1697 132.949 89.1697C132.235 89.1697 131.553 89.4295 130.806 89.9166C130.708 90.3063 130.611 90.7285 130.514 91.1507C130.384 91.6703 130.221 92.1899 130.059 92.742C129.767 93.7487 129.377 94.6256 128.922 95.3725C128.468 96.1519 127.916 96.8014 127.331 97.3535C126.746 97.9056 126.065 98.3603 125.383 98.7175C124.668 99.0747 123.954 99.367 123.174 99.5619L123.109 99.5943H123.077H123.044C121.615 99.9516 120.089 100.114 118.498 100.146C116.939 100.179 115.348 100.114 113.756 100.017H113.496C112.749 99.984 112.035 99.9516 111.386 99.9191H111.353H111.321H111.288C110.184 99.8866 109.145 99.7242 108.203 99.4644C107.261 99.1721 106.384 98.7824 105.605 98.2304C104.825 97.6458 104.144 96.8989 103.624 96.0545C103.104 95.1777 102.715 94.1384 102.487 92.9693V92.9369C102.26 91.6703 102.065 90.5986 101.935 89.6568C101.838 88.715 101.773 87.9032 101.805 87.1887C101.838 86.3768 101.968 85.6948 102.195 85.0778C102.422 84.4607 102.78 83.9087 103.202 83.3891C103.916 82.5447 104.858 81.9277 106.027 81.5055C107.164 81.0833 108.495 80.8235 110.054 80.6936C111.483 80.5962 113.107 80.5637 114.958 80.5962C116.809 80.6286 118.822 80.7261 121.063 80.8235C122.297 80.8884 123.402 80.9859 124.376 81.1158C125.35 81.2457 126.194 81.4405 126.941 81.6679C127.753 81.9277 128.468 82.2524 129.02 82.6746C129.832 83.2592 130.449 84.0061 130.806 84.9804C130.871 85.1427 130.936 85.3376 130.968 85.5324ZM104.858 89.3645C104.955 90.1764 105.118 91.1832 105.345 92.3523V92.3848C105.508 93.2291 105.767 93.9111 106.092 94.4632C106.417 95.0153 106.807 95.4699 107.294 95.8272C107.813 96.2169 108.398 96.4767 109.08 96.6715C109.762 96.8664 110.574 96.9638 111.418 96.9963H111.45C112.165 97.0288 112.782 97.0612 113.432 97.0937L113.854 97.1262H113.951C116.906 97.2886 119.927 97.4185 122.33 96.8014H122.362H122.427C123.012 96.6391 123.531 96.4442 124.051 96.1844C124.538 95.9246 124.993 95.6323 125.415 95.2426C125.805 94.8854 126.194 94.4307 126.519 93.8786C126.844 93.3266 127.104 92.7095 127.331 91.9626C127.591 91.1507 127.786 90.3713 127.948 89.6893C128.11 89.0073 128.208 88.3903 128.273 87.8382C128.305 87.3835 128.305 86.9289 128.273 86.6041C128.176 85.9546 127.916 85.4675 127.364 85.1103C127.039 84.9154 126.649 84.7206 126.129 84.5582C125.545 84.3633 124.831 84.2009 123.986 84.1035C123.142 84.0061 122.135 83.9087 120.998 83.8437C118.822 83.7463 116.809 83.6489 115.055 83.6164C113.302 83.5839 111.743 83.6164 110.379 83.7138C109.145 83.8112 108.106 83.9736 107.294 84.2659C106.514 84.5257 105.93 84.8829 105.54 85.3376C105.313 85.5974 105.15 85.8897 105.053 86.1819C104.598 87.1237 104.728 88.3578 104.858 89.3645Z" fill="#66626A"/>
<path fill-rule="evenodd" clip-rule="evenodd" d="M97.6405 193.742L106.831 180.687L91.9573 184.389L83.7734 146.003L103.908 141.262L132.454 234.921L121.348 227.971L97.6405 193.742Z" fill="#FBFDFF"/>
<path fill-rule="evenodd" clip-rule="evenodd" d="M167.37 193.742L158.147 180.687L173.02 184.389L181.204 146.003L161.069 141.262L132.523 234.921L143.63 227.971L167.37 193.742Z" fill="#FBFDFF"/>
<path d="M160.412 40.7508C148.656 27.9879 135.796 29.0596 128.294 31.3004C123.52 30.0338 114.589 30.1312 103.742 41.725C89.1285 57.2807 96.0782 116.289 98.1567 116.191C98.8711 115.574 101.144 121.81 103.937 105.247C106.893 87.8727 95.6236 79.6889 121.474 60.7232C124.852 58.2226 127.222 54.8126 128.781 51.1104C130.892 53.9357 133.62 56.3714 137.062 57.9302C179.345 76.7985 156.288 102.389 165.121 110.411C169.733 114.6 170.902 98.1998 170.902 98.1998C170.902 98.1998 176.78 58.5149 160.412 40.7508Z" fill="#794B3A"/>
</svg>
